<?xml version="1.0" encoding="utf-8"?>
<!-- Generator: Adobe Illustrator 25.1.0, SVG Export Plug-In . SVG Version: 6.00 Build 0)  -->
<svg version="1.1" id="Layer_1" xmlns="http://www.w3.org/2000/svg" xmlns:xlink="http://www.w3.org/1999/xlink" x="0px" y="0px"
	 viewBox="0 0 1440 407" style="enable-background:new 0 0 1440 407;" xml:space="preserve">
<style type="text/css">
	.st0{opacity:0.5;}
	.st1{opacity:0.3;fill:#ABD1C6;enable-background:new    ;}
	.st2{opacity:0.4;fill:#FFFFFF;enable-background:new    ;}
	.st3{opacity:0.6;fill:#004643;enable-background:new    ;}
	.st4{opacity:0.5;fill:none;stroke:#001E1D;stroke-width:0.8538;stroke-miterlimit:10;enable-background:new    ;}
	.st5{opacity:0.5;fill:#004643;enable-background:new    ;}
	.st6{opacity:0.1;fill:#252223;enable-background:new    ;}
	.st7{opacity:0.1;}
	.st8{opacity:0.1;enable-background:new    ;}
	.st9{opacity:0.3;}
	.st10{fill:#ABD1C6;}
	.st11{opacity:0.7;fill:none;stroke:#001E1D;stroke-width:0.8538;stroke-miterlimit:10;enable-background:new    ;}
	.st12{opacity:0.7;fill:#004643;enable-background:new    ;}
	.st13{opacity:0.5;fill:url(#SVGID_1_);enable-background:new    ;}
	.st14{opacity:0.5;fill:url(#SVGID_2_);enable-background:new    ;}
</style>
<g class="st0">
	<path class="st1" d="M685.5,187.8v-48.3h-28.7v48.3h-33.9v-74.6H598V57.3h-20.4V0h-42.2v57.3H515v55.8h-24.1V46h-13.6V12.1H469V46
		h-48.3v214.1h-37v-22.6h-22.6v22.6h-37v-72.4h-66.4v-48.3h-28.7v48.3h-1.5v92.7h-30.2v-54.3h-36.2v54.3H131V113.1h-23.4V57.3h-86
		v55.8H-1v294.8h132h96.6h96.6h96.6h70.2h132h96.6V187.8H685.5z"/>
	<path class="st2" d="M45,130.4H13.3v18.1H45V130.4z"/>
	<path class="st2" d="M84.2,148.5h31.7v-18.1H84.2V148.5z"/>
	<path class="st2" d="M45,165.9H13.3V184H45V165.9z"/>
	<path class="st2" d="M84.2,184h31.7v-18.1H84.2V184z"/>
	<path class="st2" d="M45,201.3H13.3v18.1H45V201.3z"/>
	<path class="st2" d="M84.2,219.4h31.7v-18.1H84.2V219.4z"/>
	<path class="st2" d="M45,236.8H13.3v18.1H45V236.8z"/>
	<path class="st2" d="M84.2,254.9h31.7v-18.1H84.2V254.9z"/>
	<path class="st2" d="M45,272.2H13.3v18.1H45V272.2z"/>
	<path class="st2" d="M84.2,290.3h31.7v-18.1H84.2V290.3z"/>
	<path class="st2" d="M45,307.6H13.3v18.1H45V307.6z"/>
	<path class="st2" d="M84.2,325.7h31.7v-18.1H84.2V325.7z"/>
	<path class="st2" d="M45,343.1H13.3v18.1H45V343.1z"/>
	<path class="st2" d="M84.2,361.2h31.7v-18.1H84.2V361.2z"/>
	<path class="st2" d="M216.3,298.6h-73.9v9h73.9V298.6z"/>
	<path class="st2" d="M216.3,312.2h-73.9v9h73.9V312.2z"/>
	<path class="st2" d="M216.3,325.7h-73.9v9h73.9V325.7z"/>
	<path class="st2" d="M409.4,303.1h-73.9v9h73.9V303.1z"/>
	<path class="st2" d="M409.4,316.7h-73.9v9h73.9V316.7z"/>
	<path class="st2" d="M409.4,330.3h-73.9v9h73.9V330.3z"/>
	<path class="st2" d="M216.3,339.3h-73.9v9h73.9V339.3z"/>
	<path class="st2" d="M216.3,352.9h-73.9v9h73.9V352.9z"/>
	<path class="st2" d="M216.3,366.5h-73.9v9h73.9V366.5z"/>
	<path class="st2" d="M263.8,205.1h-20.4v26.4h20.4V205.1z"/>
	<path class="st2" d="M287.9,231.5h20.4v-26.4h-20.4V231.5z"/>
	<path class="st2" d="M263.8,247.3h-20.4v26.4h20.4V247.3z"/>
	<path class="st2" d="M287.9,273.7h20.4v-26.4h-20.4V273.7z"/>
	<path class="st2" d="M263.8,289.5h-20.4v26.4h20.4V289.5z"/>
	<path class="st2" d="M287.9,315.9h20.4v-26.4h-20.4V315.9z"/>
	<path class="st2" d="M263.8,331.8h-20.4v26.4h20.4V331.8z"/>
	<path class="st2" d="M287.9,358.2h20.4v-26.4h-20.4V358.2z"/>
	<path class="st2" d="M447.9,63.3h-27.2V98h27.2V63.3z"/>
	<path class="st2" d="M447.9,113.1h-27.2v34.7h27.2V113.1z"/>
	<path class="st2" d="M447.9,162.9h-27.2v34.7h27.2V162.9z"/>
	<path class="st2" d="M447.9,212.6h-27.2v34.7h27.2V212.6z"/>
	<path class="st2" d="M447.9,262.4h-27.2v34.7h27.2V262.4z"/>
	<path class="st2" d="M447.9,312.2h-27.2v34.7h27.2V312.2z"/>
	<path class="st2" d="M607.4,134.2H506.3v29.4h101.1V134.2z"/>
	<path class="st2" d="M607.8,197.6H506.7V227h101.1V197.6z"/>
	<path class="st2" d="M608.2,260.9H507.1v29.4h101.1V260.9z"/>
	<path class="st2" d="M608.5,324.2H507.5v29.4h101.1V324.2z"/>
	<path class="st2" d="M35.2,73.1H21.6v28.7h13.6V73.1z"/>
	<path class="st2" d="M719.4,205.1h-33.9v43.7h33.9V205.1z"/>
	<path class="st2" d="M719.4,268.4h-33.9v43.7h33.9V268.4z"/>
	<path class="st2" d="M719.4,331.8h-33.9v43.7h33.9V331.8z"/>
	<path class="st3" d="M105.7,223.6c0,7.7-14,30.2-14,30.2s-14-22.4-14-30.2c0-1.9,0.3-3.7,1-5.5c0.7-1.7,1.7-3.3,3-4.7
		c1.3-1.3,2.9-2.4,4.6-3.1c1.7-0.7,3.6-1.1,5.4-1.1c1.9,0,3.7,0.4,5.4,1.1c1.7,0.7,3.3,1.8,4.6,3.1c1.3,1.3,2.3,2.9,3,4.7
		C105.5,219.9,105.8,221.7,105.7,223.6L105.7,223.6z"/>
	<path class="st3" d="M128.9,266.5c-4.2,6.5-28.2,17.7-28.2,17.7s0.4-26.5,4.6-33c2.1-3,5.2-5.1,8.8-5.8c3.6-0.7,7.3,0,10.4,2
		s5.2,5.1,6.1,8.7C131.5,259.6,130.9,263.4,128.9,266.5L128.9,266.5z"/>
	<path class="st3" d="M127.9,339.8c-6.9,3.5-33.3,1.1-33.3,1.1s13.7-22.6,20.7-26.1c3.3-1.6,7.1-1.8,10.6-0.6c3.5,1.2,6.3,3.7,8,7
		c1.7,3.3,2,7.1,0.8,10.6C133.6,335.1,131.2,338,127.9,339.8L127.9,339.8z"/>
	<path class="st3" d="M114.7,395c-6.2,4.6-32.6,6.7-32.6,6.7s9.7-24.6,15.9-29.2c1.5-1.1,3.2-1.9,5-2.4c1.8-0.5,3.7-0.6,5.5-0.3
		c1.8,0.3,3.6,0.9,5.2,1.8c1.6,1,3,2.2,4.1,3.7c1.1,1.5,1.9,3.2,2.3,5s0.5,3.7,0.2,5.5c-0.3,1.8-0.9,3.6-1.9,5.2
		C117.4,392.6,116.2,393.9,114.7,395z"/>
	<path class="st3" d="M71.3,285.7c5.6,5.4,31.4,11,31.4,11s-6.3-25.7-11.9-31.1c-1.3-1.3-2.9-2.4-4.6-3.1c-1.7-0.7-3.6-1.1-5.4-1.1
		c-1.9,0-3.7,0.4-5.4,1.1c-1.7,0.7-3.3,1.8-4.6,3.1c-1.3,1.3-2.3,2.9-3,4.7c-0.7,1.7-1,3.6-1,5.5c0,1.9,0.5,3.7,1.2,5.4
		C68.9,282.9,70,284.4,71.3,285.7L71.3,285.7z"/>
	<path class="st3" d="M56.6,350.5c6.9,3.5,33.3,1.1,33.3,1.1S76.2,329,69.3,325.5c-3.3-1.6-7.1-1.8-10.6-0.6c-3.5,1.2-6.3,3.7-8,7
		c-1.7,3.3-2,7.1-0.8,10.6C50.9,345.9,53.4,348.8,56.6,350.5L56.6,350.5z"/>
	<path class="st3" d="M51,415.5c6.2,4.6,32.6,6.7,32.6,6.7s-9.7-24.6-15.9-29.2c-3-2.2-6.7-3.1-10.4-2.5c-3.7,0.6-6.9,2.5-9.1,5.5
		c-2.2,3-3.1,6.7-2.6,10.4C46.1,410,48.1,413.3,51,415.5L51,415.5z"/>
	<path class="st3" d="M105.7,223.6c0,7.7-14,30.2-14,30.2s-14-22.4-14-30.2c0-1.9,0.3-3.7,1-5.5c0.7-1.7,1.7-3.3,3-4.7
		c1.3-1.3,2.9-2.4,4.6-3.1c1.7-0.7,3.6-1.1,5.4-1.1c1.9,0,3.7,0.4,5.4,1.1c1.7,0.7,3.3,1.8,4.6,3.1c1.3,1.3,2.3,2.9,3,4.7
		C105.5,219.9,105.8,221.7,105.7,223.6L105.7,223.6z"/>
	<path class="st3" d="M128.9,266.5c-4.2,6.5-28.2,17.7-28.2,17.7s0.4-26.5,4.6-33c2.1-3,5.2-5.1,8.8-5.8c3.6-0.7,7.3,0,10.4,2
		s5.2,5.1,6.1,8.7C131.5,259.6,130.9,263.4,128.9,266.5L128.9,266.5z"/>
	<path class="st3" d="M127.9,339.8c-6.9,3.5-33.3,1.1-33.3,1.1s13.7-22.6,20.7-26.1c3.3-1.6,7.1-1.8,10.6-0.6c3.5,1.2,6.3,3.7,8,7
		c1.7,3.3,2,7.1,0.8,10.6C133.6,335.1,131.2,338,127.9,339.8L127.9,339.8z"/>
	<path class="st3" d="M114.7,395c-6.2,4.6-32.6,6.7-32.6,6.7s9.7-24.6,15.9-29.2c1.5-1.1,3.2-1.9,5-2.4c1.8-0.5,3.7-0.6,5.5-0.3
		c1.8,0.3,3.6,0.9,5.2,1.8c1.6,1,3,2.2,4.1,3.7c1.1,1.5,1.9,3.2,2.3,5s0.5,3.7,0.2,5.5c-0.3,1.8-0.9,3.6-1.9,5.2
		C117.4,392.6,116.2,393.9,114.7,395z"/>
	<path class="st3" d="M71.3,285.7c5.6,5.4,31.4,11,31.4,11s-6.3-25.7-11.9-31.1c-1.3-1.3-2.9-2.4-4.6-3.1c-1.7-0.7-3.6-1.1-5.4-1.1
		c-1.9,0-3.7,0.4-5.4,1.1c-1.7,0.7-3.3,1.8-4.6,3.1c-1.3,1.3-2.3,2.9-3,4.7c-0.7,1.7-1,3.6-1,5.5c0,1.9,0.5,3.7,1.2,5.4
		C68.9,282.9,70,284.4,71.3,285.7L71.3,285.7z"/>
	<path class="st3" d="M56.6,350.5c6.9,3.5,33.3,1.1,33.3,1.1S76.2,329,69.3,325.5c-3.3-1.6-7.1-1.8-10.6-0.6c-3.5,1.2-6.3,3.7-8,7
		c-1.7,3.3-2,7.1-0.8,10.6C50.9,345.9,53.4,348.8,56.6,350.5L56.6,350.5z"/>
	<path class="st3" d="M51,415.5c6.2,4.6,32.6,6.7,32.6,6.7s-9.7-24.6-15.9-29.2c-3-2.2-6.7-3.1-10.4-2.5c-3.7,0.6-6.9,2.5-9.1,5.5
		c-2.2,3-3.1,6.7-2.6,10.4C46.1,410,48.1,413.3,51,415.5L51,415.5z"/>
	<path class="st4" d="M586.3,432.1c0,0-10-33.9,1.9-58.9c5-10.4,6.6-22.2,4.3-33.6c-1.1-5.4-2.7-10.7-4.8-15.8"/>
	<path class="st5" d="M595.1,308c0,4.2-7.5,16.2-7.5,16.2S580,312.2,580,308c0-2,0.8-3.9,2.2-5.3c1.4-1.4,3.3-2.2,5.3-2.2
		c2,0,3.9,0.8,5.3,2.2C594.3,304.1,595.1,306,595.1,308z"/>
	<path class="st5" d="M607.6,331c-2.3,3.5-15.1,9.5-15.1,9.5s0.2-14.2,2.5-17.7c0.5-0.9,1.2-1.6,2-2.3c0.8-0.6,1.8-1,2.7-1.3
		c1-0.2,2-0.3,3-0.1c1,0.2,2,0.5,2.8,1.1c0.9,0.6,1.6,1.3,2.2,2.1c0.6,0.8,1,1.8,1.2,2.8c0.2,1,0.2,2,0,3
		C608.6,329.3,608.2,330.2,607.6,331z"/>
	<path class="st5" d="M607,370.4c-3.7,1.9-17.9,0.6-17.9,0.6s7.4-12.2,11.1-14c1.8-0.8,3.8-0.9,5.6-0.2c1.8,0.6,3.3,2,4.2,3.7
		c0.9,1.7,1,3.7,0.5,5.6C610,367.9,608.7,369.5,607,370.4L607,370.4z"/>
	<path class="st5" d="M599.9,400.1c-3.3,2.5-17.5,3.6-17.5,3.6s5.2-13.2,8.6-15.7c1.6-1.1,3.6-1.5,5.5-1.2c1.9,0.3,3.6,1.4,4.8,2.9
		c1.2,1.6,1.7,3.5,1.4,5.4C602.4,397.1,601.4,398.9,599.9,400.1z"/>
	<path class="st5" d="M576.6,341.4c3,2.9,16.9,5.9,16.9,5.9s-3.4-13.8-6.4-16.7c-0.7-0.7-1.5-1.3-2.5-1.7c-0.9-0.4-1.9-0.6-3-0.6
		c-1,0-2,0.2-3,0.6c-0.9,0.4-1.8,1-2.5,1.7c-0.7,0.7-1.3,1.6-1.6,2.6c-0.4,1-0.5,2-0.5,3c0,1,0.3,2,0.7,2.9
		C575.2,339.9,575.9,340.7,576.6,341.4L576.6,341.4z"/>
	<path class="st5" d="M568.7,376.2c3.7,1.9,17.9,0.6,17.9,0.6s-7.4-12.2-11.1-14c-1.8-0.8-3.8-0.9-5.6-0.2c-1.8,0.6-3.3,2-4.2,3.7
		c-0.9,1.7-1,3.7-0.5,5.6C565.8,373.7,567,375.3,568.7,376.2L568.7,376.2z"/>
	<path class="st5" d="M565.7,411.1c3.3,2.5,17.5,3.6,17.5,3.6s-5.3-13.2-8.6-15.7c-1.6-1.1-3.6-1.5-5.5-1.2c-1.9,0.3-3.6,1.4-4.8,3
		c-1.2,1.6-1.7,3.5-1.4,5.5C563.2,408.2,564.2,409.9,565.7,411.1z"/>
	<path class="st6" d="M198.7,36h-5.2c0.5,0,1-0.1,1.4-0.2c0.5-0.2,0.9-0.4,1.2-0.8c0.4-0.3,0.6-0.7,0.8-1.2c0.2-0.5,0.3-0.9,0.3-1.4
		s-0.1-1-0.3-1.4c-0.2-0.5-0.5-0.9-0.8-1.2c-0.4-0.3-0.8-0.6-1.2-0.8c-0.5-0.2-0.9-0.2-1.4-0.2h-42c-0.9,0-1.8,0.4-2.5,1.1
		c-0.6,0.7-1,1.6-1,2.5s0.4,1.8,1,2.5c0.6,0.7,1.5,1.1,2.5,1.1h5.2c-0.5,0-1,0.1-1.4,0.2c-0.5,0.2-0.9,0.4-1.2,0.8
		c-0.4,0.3-0.6,0.7-0.8,1.2c-0.2,0.5-0.3,0.9-0.3,1.4c0,0.5,0.1,1,0.3,1.4c0.2,0.5,0.5,0.9,0.8,1.2c0.4,0.3,0.8,0.6,1.2,0.8
		c0.5,0.2,1,0.2,1.4,0.2h-7.3c-0.5,0-1,0.1-1.4,0.2c-0.5,0.2-0.9,0.4-1.2,0.8c-0.4,0.3-0.6,0.7-0.8,1.2c-0.2,0.5-0.3,0.9-0.3,1.4
		s0.1,1,0.3,1.4c0.2,0.5,0.5,0.9,0.8,1.2c0.4,0.3,0.8,0.6,1.2,0.8c0.5,0.2,1,0.2,1.4,0.2h42c0.5,0,1-0.1,1.4-0.2
		c0.5-0.2,0.9-0.4,1.2-0.8c0.4-0.3,0.6-0.7,0.8-1.2c0.2-0.5,0.3-0.9,0.3-1.4s-0.1-1-0.3-1.4c-0.2-0.5-0.5-0.9-0.8-1.2
		c-0.4-0.3-0.8-0.6-1.2-0.8c-0.5-0.2-0.9-0.2-1.4-0.2h7.3c0.5,0,1-0.1,1.4-0.2c0.5-0.2,0.9-0.4,1.2-0.8c0.4-0.3,0.6-0.7,0.8-1.2
		c0.2-0.5,0.3-0.9,0.3-1.4c0-0.5-0.1-1-0.3-1.4c-0.2-0.5-0.5-0.9-0.8-1.2c-0.4-0.3-0.8-0.6-1.2-0.8C199.7,36,199.2,35.9,198.7,36z"
		/>
	<path class="st6" d="M384.2,127.2h-5.2c0.5,0,1-0.1,1.4-0.2c0.5-0.2,0.9-0.4,1.2-0.8c0.4-0.3,0.6-0.7,0.8-1.2
		c0.2-0.5,0.3-0.9,0.3-1.4c0-0.5-0.1-1-0.3-1.4c-0.2-0.5-0.5-0.9-0.8-1.2c-0.4-0.3-0.8-0.6-1.2-0.8c-0.5-0.2-1-0.2-1.4-0.2h-42
		c-0.9,0-1.8,0.4-2.5,1.1c-0.6,0.7-1,1.6-1,2.5c0,0.9,0.4,1.8,1,2.5c0.6,0.7,1.5,1.1,2.5,1.1h5.2c-0.5,0-1,0.1-1.4,0.2
		c-0.5,0.2-0.9,0.4-1.2,0.8c-0.4,0.3-0.6,0.7-0.8,1.2c-0.2,0.5-0.3,0.9-0.3,1.4c0,0.5,0.1,1,0.3,1.4c0.2,0.5,0.5,0.9,0.8,1.2
		c0.4,0.3,0.8,0.6,1.2,0.8c0.5,0.2,1,0.2,1.4,0.2h-7.3c-0.5,0-1,0.1-1.4,0.2c-0.5,0.2-0.9,0.4-1.2,0.8c-0.4,0.3-0.6,0.7-0.8,1.2
		c-0.2,0.5-0.3,0.9-0.3,1.4c0,0.5,0.1,1,0.3,1.4c0.2,0.5,0.5,0.9,0.8,1.2c0.4,0.3,0.8,0.6,1.2,0.8c0.5,0.2,0.9,0.2,1.4,0.2h42
		c0.5,0,1-0.1,1.4-0.2c0.5-0.2,0.9-0.4,1.2-0.8c0.4-0.3,0.6-0.7,0.8-1.2c0.2-0.5,0.3-0.9,0.3-1.4c0-0.5-0.1-1-0.3-1.4
		c-0.2-0.5-0.5-0.9-0.8-1.2c-0.4-0.3-0.8-0.6-1.2-0.8c-0.5-0.2-1-0.2-1.4-0.2h7.3c0.5,0,1-0.1,1.4-0.2c0.5-0.2,0.9-0.4,1.2-0.8
		c0.4-0.3,0.6-0.7,0.8-1.2c0.2-0.5,0.3-0.9,0.3-1.4c0-0.5-0.1-1-0.3-1.4c-0.2-0.5-0.5-0.9-0.8-1.2c-0.4-0.3-0.8-0.6-1.2-0.8
		C385.2,127.2,384.7,127.2,384.2,127.2z"/>
	<path class="st6" d="M700.3,8.1h-5.2c0.5,0,1-0.1,1.4-0.2c0.5-0.2,0.9-0.4,1.2-0.8c0.4-0.3,0.6-0.7,0.8-1.2
		c0.2-0.5,0.3-0.9,0.3-1.4c0-0.5-0.1-1-0.3-1.4c-0.2-0.5-0.5-0.9-0.8-1.2c-0.4-0.3-0.8-0.6-1.2-0.8c-0.5-0.2-1-0.2-1.4-0.2h-42
		c-0.9,0-1.8,0.4-2.5,1.1c-0.6,0.7-1,1.6-1,2.5s0.4,1.8,1,2.5c0.6,0.7,1.5,1.1,2.5,1.1h5.2c-0.5,0-1,0.1-1.4,0.2
		c-0.5,0.2-0.9,0.4-1.2,0.8c-0.4,0.3-0.6,0.7-0.8,1.2c-0.2,0.5-0.3,0.9-0.3,1.4c0,0.5,0.1,1,0.3,1.4c0.2,0.5,0.5,0.9,0.8,1.2
		c0.4,0.3,0.8,0.6,1.2,0.8c0.5,0.2,1,0.2,1.4,0.2H651c-0.5,0-1,0.1-1.4,0.2c-0.5,0.2-0.9,0.4-1.2,0.8c-0.4,0.3-0.6,0.7-0.8,1.2
		c-0.2,0.5-0.3,0.9-0.3,1.4c0,0.5,0.1,1,0.3,1.4c0.2,0.5,0.5,0.9,0.8,1.2c0.4,0.3,0.8,0.6,1.2,0.8c0.5,0.2,1,0.2,1.4,0.2h42
		c0.9,0,1.8-0.4,2.5-1.1c0.6-0.7,1-1.6,1-2.5c0-0.9-0.4-1.8-1-2.5c-0.6-0.7-1.5-1.1-2.5-1.1h7.3c0.5,0,1-0.1,1.4-0.2
		c0.5-0.2,0.9-0.4,1.2-0.8c0.4-0.3,0.6-0.7,0.8-1.2c0.2-0.5,0.3-0.9,0.3-1.4c0-0.5-0.1-1-0.3-1.4c-0.2-0.5-0.5-0.9-0.8-1.2
		c-0.4-0.3-0.8-0.6-1.2-0.8C701.3,8.1,700.8,8,700.3,8.1z"/>
	<g class="st7">
		<path class="st8" d="M314.7,256.1c0,0-22.7,32-31.7,64.3c0,0-7.9,13.8-6.9,27.9l-14.4,69.8l26.5,10c0,0-1.4-8.6,3.8-13.4
			c5.1-4.8,17.2-53.6,16.2-61.2c0,0,16.5-41.3,33-57.4c16.5-16.2,24.7-19.9,27.2-33.8C368.3,262.1,329.5,243.4,314.7,256.1z"/>
	</g>
	<g class="st7">
		<path class="st8" d="M248.8,231.5L248.8,231.5c-2.9,1.4-4.1,4.9-2.7,7.8l7.3,15.2c1.4,2.9,4.9,4.1,7.8,2.7l0,0
			c2.9-1.4,4.1-4.9,2.7-7.8l-7.3-15.2C255.2,231.4,251.7,230.1,248.8,231.5z"/>
	</g>
	<path class="st4" d="M89.3,454.6c0,0-18.6-63.2,3.5-109.6c9.3-19.5,12.4-41.4,8.1-62.6c-2-10.1-5-19.9-8.9-29.4"/>
</g>
<g>
	<g>
		<g class="st0">
			<g class="st9">
				<path class="st10" d="M1444,187.8v-48.3h-28.7v48.3h-33.9v-74.6h-24.9V57.3h-20.4V0h-42.2v57.3h-20.4v55.8h-24.1V46h-13.6V12.1
					h-8.3V46h-48.3v214.1h-37v-22.6h-22.6v22.6h-37v-72.4h-66.4v-48.3h-28.7v48.3H986v92.7h-30.2v-54.3h-36.2v54.3h-30.2V113.1
					h-23.4V57.3h-86v55.8h-60.6v294.8h170H986h96.6h96.6h70.2h132h96.6V187.8H1444z"/>
				<path class="st10" d="M1444,187.8v-48.3h-28.7v48.3h-33.9v-74.6h-24.9V57.3h-20.4V0h-42.2v57.3h-20.4v55.8h-24.1V46h-13.6V12.1
					h-8.3V46h-48.3v214.1h-37v-22.6h-22.6v22.6h-37v-72.4h-66.4v-48.3h-28.7v48.3H986v92.7h-30.2v-54.3h-36.2v54.3h-30.2V113.1
					h-23.4V57.3h-86v55.8h-60.6v294.8h170H986h96.6h96.6h70.2h132h96.6V187.8H1444z"/>
			</g>
			<path class="st2" d="M803.5,130.4h-31.7v18.1h31.7V130.4z"/>
			<path class="st2" d="M842.7,148.5h31.7v-18.1h-31.7V148.5z"/>
			<path class="st2" d="M803.5,165.9h-31.7V184h31.7V165.9z"/>
			<path class="st2" d="M842.7,184h31.7v-18.1h-31.7V184z"/>
			<path class="st2" d="M803.5,201.3h-31.7v18.1h31.7V201.3z"/>
			<path class="st2" d="M842.7,219.4h31.7v-18.1h-31.7V219.4z"/>
			<path class="st2" d="M803.5,236.8h-31.7v18.1h31.7V236.8z"/>
			<path class="st2" d="M842.7,254.9h31.7v-18.1h-31.7V254.9z"/>
			<path class="st2" d="M803.5,272.2h-31.7v18.1h31.7V272.2z"/>
			<path class="st2" d="M842.7,290.3h31.7v-18.1h-31.7V290.3z"/>
			<path class="st2" d="M803.5,307.6h-31.7v18.1h31.7V307.6z"/>
			<path class="st2" d="M842.7,325.7h31.7v-18.1h-31.7V325.7z"/>
			<path class="st2" d="M803.5,343.1h-31.7v18.1h31.7V343.1z"/>
			<path class="st2" d="M842.7,361.2h31.7v-18.1h-31.7V361.2z"/>
			<path class="st2" d="M974.7,298.6h-73.9v9h73.9V298.6z"/>
			<path class="st2" d="M974.7,312.2h-73.9v9h73.9V312.2z"/>
			<path class="st2" d="M974.7,325.7h-73.9v9h73.9V325.7z"/>
			<path class="st2" d="M1167.9,303.1h-73.9v9h73.9V303.1z"/>
			<path class="st2" d="M1167.9,316.7h-73.9v9h73.9V316.7z"/>
			<path class="st2" d="M1167.9,330.3h-73.9v9h73.9V330.3z"/>
			<path class="st2" d="M974.7,339.3h-73.9v9h73.9V339.3z"/>
			<path class="st2" d="M974.7,352.9h-73.9v9h73.9V352.9z"/>
			<path class="st2" d="M974.7,366.5h-73.9v9h73.9V366.5z"/>
			<path class="st2" d="M1022.3,205.1h-20.4v26.4h20.4V205.1z"/>
			<path class="st2" d="M1046.4,231.5h20.4v-26.4h-20.4V231.5z"/>
			<path class="st2" d="M1022.3,247.3h-20.4v26.4h20.4V247.3z"/>
			<path class="st2" d="M1046.4,273.7h20.4v-26.4h-20.4V273.7z"/>
			<path class="st2" d="M1022.3,289.5h-20.4v26.4h20.4V289.5z"/>
			<path class="st2" d="M1046.4,315.9h20.4v-26.4h-20.4V315.9z"/>
			<path class="st2" d="M1022.3,331.8h-20.4v26.4h20.4V331.8z"/>
			<path class="st2" d="M1046.4,358.2h20.4v-26.4h-20.4V358.2z"/>
			<path class="st2" d="M1206.3,63.3h-27.2V98h27.2V63.3z"/>
			<path class="st2" d="M1206.3,113.1h-27.2v34.7h27.2V113.1z"/>
			<path class="st2" d="M1206.3,162.9h-27.2v34.7h27.2V162.9z"/>
			<path class="st2" d="M1206.3,212.6h-27.2v34.7h27.2V212.6z"/>
			<path class="st2" d="M1206.3,262.4h-27.2v34.7h27.2V262.4z"/>
			<path class="st2" d="M1206.3,312.2h-27.2v34.7h27.2V312.2z"/>
			<path class="st2" d="M1365.9,134.2h-101.1v29.4h101.1V134.2z"/>
			<path class="st2" d="M1366.3,197.6h-101.1V227h101.1V197.6z"/>
			<path class="st2" d="M1366.6,260.9h-101.1v29.4h101.1V260.9z"/>
			<path class="st2" d="M1367,324.2h-101.1v29.4H1367V324.2z"/>
			<path class="st2" d="M793.7,73.1h-13.6v28.7h13.6V73.1z"/>
			<path class="st11" d="M1281.8,421.3c0,0-18.6-63.2,3.5-109.6c9.3-19.5,12.4-41.4,8.1-62.6c-2.1-10.1-5-19.9-8.9-29.4"/>
			<path class="st12" d="M1298.3,190.3c0,7.7-14,30.2-14,30.2s-14-22.4-14-30.2c-0.1-1.9,0.3-3.7,1-5.5c0.7-1.7,1.7-3.3,3-4.7
				c1.3-1.3,2.9-2.4,4.6-3.1c1.7-0.7,3.6-1.1,5.4-1.1s3.7,0.4,5.4,1.1c1.7,0.7,3.3,1.8,4.6,3.1c1.3,1.3,2.3,2.9,3,4.7
				C1298,186.6,1298.3,188.5,1298.3,190.3L1298.3,190.3z"/>
			<path class="st12" d="M1321.5,233.2c-4.2,6.5-28.2,17.7-28.2,17.7s0.4-26.5,4.6-33c1-1.6,2.3-3,3.8-4.1c1.5-1.1,3.2-1.9,5.1-2.3
				c1.8-0.4,3.7-0.5,5.5-0.1s3.6,1,5.2,2c1.6,1,2.9,2.3,4,3.9c1.1,1.5,1.8,3.3,2.2,5.1c0.4,1.8,0.4,3.7,0,5.6
				C1323.2,229.9,1322.5,231.7,1321.5,233.2L1321.5,233.2z"/>
			<path class="st12" d="M1320.4,306.5c-6.9,3.5-33.3,1.1-33.3,1.1s13.7-22.6,20.7-26.1c3.3-1.6,7.1-1.8,10.6-0.6
				c3.5,1.2,6.3,3.7,8,7c1.7,3.3,2,7.1,0.8,10.6C1326.1,301.8,1323.7,304.8,1320.4,306.5L1320.4,306.5z"/>
			<path class="st12" d="M1307.2,361.8c-6.2,4.6-32.6,6.7-32.6,6.7s9.7-24.6,16-29.2c3-2.2,6.7-3.1,10.4-2.5
				c3.7,0.6,6.9,2.5,9.2,5.5c2.2,3,3.1,6.7,2.6,10.4C1312.1,356.2,1310.1,359.5,1307.2,361.8z"/>
			<path class="st12" d="M1263.8,252.4c5.6,5.4,31.4,11,31.4,11s-6.3-25.7-11.9-31.1c-2.7-2.6-6.3-4-10-4c-3.7,0.1-7.3,1.6-9.9,4.2
				c-2.6,2.7-4,6.3-4,10C1259.6,246.3,1261.2,249.8,1263.8,252.4z"/>
			<path class="st12" d="M1249.2,317.3c6.9,3.5,33.3,1.1,33.3,1.1s-13.7-22.6-20.7-26.1c-3.3-1.6-7.1-1.8-10.5-0.6s-6.3,3.7-8,6.9
				c-1.7,3.3-2,7-0.9,10.5C1243.5,312.6,1246,315.5,1249.2,317.3z"/>
			<path class="st12" d="M1243.5,382.2c6.2,4.6,32.6,6.7,32.6,6.7s-9.7-24.6-15.9-29.2c-3-2.2-6.7-3.1-10.4-2.5
				c-3.7,0.6-6.9,2.5-9.1,5.5c-2.2,3-3.1,6.7-2.6,10.4C1238.6,376.7,1240.6,380,1243.5,382.2z"/>
			<path class="st11" d="M1197.9,415.2c0,0-10-33.9,1.9-58.9c5-10.4,6.6-22.2,4.3-33.6c-1.1-5.4-2.7-10.7-4.8-15.8"/>
			<path class="st12" d="M1206.7,291c0,4.2-7.5,16.2-7.5,16.2s-7.5-12.1-7.5-16.2c0-2,0.8-3.9,2.2-5.3c1.4-1.4,3.3-2.2,5.3-2.2
				s3.9,0.8,5.3,2.2C1205.9,287.1,1206.7,289,1206.7,291z"/>
			<path class="st12" d="M1219.2,314.1c-2.3,3.5-15.1,9.5-15.1,9.5s0.2-14.2,2.5-17.7c0.5-0.9,1.2-1.6,2-2.3c0.8-0.6,1.8-1,2.8-1.3
				c1-0.2,2-0.3,3-0.1c1,0.2,2,0.5,2.8,1.1c0.9,0.6,1.6,1.3,2.2,2.1c0.6,0.8,1,1.8,1.2,2.8c0.2,1,0.2,2,0,3
				C1220.2,312.3,1219.8,313.3,1219.2,314.1z"/>
			<path class="st12" d="M1218.6,353.5c-3.7,1.9-17.9,0.6-17.9,0.6s7.4-12.2,11.1-14c1.8-0.8,3.8-0.9,5.6-0.2c1.8,0.6,3.3,2,4.2,3.7
				c0.9,1.7,1.1,3.7,0.5,5.6C1221.6,350.9,1220.3,352.5,1218.6,353.5L1218.6,353.5z"/>
			<path class="st12" d="M1211.5,383.2c-3.3,2.5-17.5,3.6-17.5,3.6s5.2-13.2,8.6-15.7c1.6-1.1,3.6-1.5,5.5-1.2
				c1.9,0.3,3.6,1.4,4.8,2.9c1.2,1.6,1.7,3.5,1.4,5.4S1213,381.9,1211.5,383.2z"/>
			<path class="st12" d="M1188.2,324.4c3,2.9,16.9,5.9,16.9,5.9s-3.4-13.8-6.4-16.7c-0.7-0.7-1.5-1.3-2.5-1.7
				c-0.9-0.4-1.9-0.6-3-0.6c-1,0-2,0.2-3,0.6c-0.9,0.4-1.8,1-2.5,1.7c-0.7,0.7-1.3,1.6-1.6,2.6c-0.4,1-0.5,2-0.5,3
				c0,1,0.3,2,0.7,2.9C1186.8,322.9,1187.4,323.7,1188.2,324.4L1188.2,324.4z"/>
			<path class="st12" d="M1180.3,359.3c3.7,1.9,17.9,0.6,17.9,0.6s-7.4-12.2-11.1-14c-1.8-0.8-3.8-0.9-5.6-0.2
				c-1.8,0.6-3.3,2-4.2,3.7c-0.9,1.7-1.1,3.7-0.5,5.6C1177.4,356.7,1178.6,358.3,1180.3,359.3L1180.3,359.3z"/>
			<path class="st12" d="M1177.3,394.2c3.4,2.5,17.5,3.6,17.5,3.6s-5.2-13.2-8.6-15.7c-1.6-1.1-3.6-1.5-5.5-1.2
				c-1.9,0.3-3.6,1.4-4.8,3c-1.2,1.6-1.7,3.5-1.4,5.5C1174.8,391.2,1175.8,393,1177.3,394.2z"/>
			<path class="st6" d="M957.1,36H952c0.5,0,1-0.1,1.4-0.2c0.5-0.2,0.9-0.4,1.2-0.8c0.4-0.3,0.6-0.7,0.8-1.2
				c0.2-0.5,0.3-0.9,0.3-1.4s-0.1-1-0.3-1.4c-0.2-0.5-0.5-0.9-0.8-1.2c-0.4-0.3-0.8-0.6-1.2-0.8c-0.5-0.2-0.9-0.2-1.4-0.2h-42
				c-0.9,0-1.8,0.4-2.5,1.1c-0.6,0.7-1,1.6-1,2.5s0.4,1.8,1,2.5c0.6,0.7,1.5,1.1,2.5,1.1h5.2c-0.5,0-1,0.1-1.4,0.2
				c-0.5,0.2-0.9,0.4-1.2,0.8c-0.4,0.3-0.6,0.7-0.8,1.2c-0.2,0.5-0.3,0.9-0.3,1.4c0,0.5,0.1,1,0.3,1.4c0.2,0.5,0.5,0.9,0.8,1.2
				c0.4,0.3,0.8,0.6,1.2,0.8c0.5,0.2,1,0.2,1.4,0.2h-7.3c-0.5,0-1,0.1-1.4,0.2c-0.5,0.2-0.9,0.4-1.2,0.8c-0.4,0.3-0.6,0.7-0.8,1.2
				c-0.2,0.5-0.3,0.9-0.3,1.4s0.1,1,0.3,1.4c0.2,0.5,0.5,0.9,0.8,1.2c0.4,0.3,0.8,0.6,1.2,0.8c0.5,0.2,1,0.2,1.4,0.2h42
				c0.5,0,1-0.1,1.4-0.2c0.5-0.2,0.9-0.4,1.2-0.8c0.4-0.3,0.6-0.7,0.8-1.2c0.2-0.5,0.3-0.9,0.3-1.4s-0.1-1-0.3-1.4
				c-0.2-0.5-0.5-0.9-0.8-1.2c-0.4-0.3-0.8-0.6-1.2-0.8c-0.5-0.2-0.9-0.2-1.4-0.2h7.3c0.5,0,1-0.1,1.4-0.2c0.5-0.2,0.9-0.4,1.2-0.8
				c0.4-0.3,0.6-0.7,0.8-1.2c0.2-0.5,0.3-0.9,0.3-1.4c0-0.5-0.1-1-0.3-1.4c-0.2-0.5-0.5-0.9-0.8-1.2c-0.4-0.3-0.8-0.6-1.2-0.8
				C958.1,36,957.6,35.9,957.1,36z"/>
			<path class="st6" d="M1142.7,127.2h-5.2c0.5,0,1-0.1,1.4-0.2c0.5-0.2,0.9-0.4,1.2-0.8c0.3-0.3,0.6-0.7,0.8-1.2
				c0.2-0.5,0.3-0.9,0.3-1.4c0-0.5-0.1-1-0.3-1.4c-0.2-0.5-0.5-0.9-0.8-1.2c-0.4-0.3-0.8-0.6-1.2-0.8c-0.5-0.2-0.9-0.2-1.4-0.2h-42
				c-0.9,0-1.8,0.4-2.5,1.1c-0.6,0.7-1,1.6-1,2.5c0,0.9,0.4,1.8,1,2.5c0.6,0.7,1.5,1.1,2.5,1.1h5.2c-0.5,0-1,0.1-1.4,0.2
				s-0.9,0.4-1.2,0.8c-0.4,0.3-0.6,0.7-0.8,1.2c-0.2,0.5-0.3,0.9-0.3,1.4c0,0.5,0.1,1,0.3,1.4c0.2,0.5,0.5,0.9,0.8,1.2
				c0.3,0.3,0.8,0.6,1.2,0.8c0.5,0.2,0.9,0.2,1.4,0.2h-7.3c-0.5,0-1,0.1-1.4,0.2c-0.5,0.2-0.9,0.4-1.2,0.8c-0.3,0.3-0.6,0.7-0.8,1.2
				c-0.2,0.5-0.3,0.9-0.3,1.4c0,0.5,0.1,1,0.3,1.4c0.2,0.5,0.5,0.9,0.8,1.2c0.4,0.3,0.8,0.6,1.2,0.8s0.9,0.2,1.4,0.2h42
				c0.5,0,1-0.1,1.5-0.2c0.5-0.2,0.9-0.4,1.2-0.8c0.4-0.3,0.6-0.7,0.8-1.2c0.2-0.5,0.3-0.9,0.3-1.4c0-0.5-0.1-1-0.3-1.4
				c-0.2-0.5-0.5-0.9-0.8-1.2c-0.3-0.3-0.8-0.6-1.2-0.8c-0.5-0.2-1-0.2-1.5-0.2h7.3c0.5,0,1-0.1,1.4-0.2c0.5-0.2,0.9-0.4,1.2-0.8
				c0.3-0.3,0.6-0.7,0.8-1.2c0.2-0.5,0.3-0.9,0.3-1.4c0-0.5-0.1-1-0.3-1.4c-0.2-0.5-0.5-0.9-0.8-1.2c-0.4-0.3-0.8-0.6-1.2-0.8
				C1143.7,127.2,1143.2,127.2,1142.7,127.2z"/>
			<path class="st6" d="M1458.8,8.1h-5.2c0.5,0,1-0.1,1.4-0.2c0.5-0.2,0.9-0.4,1.2-0.8c0.4-0.3,0.6-0.7,0.8-1.2
				c0.2-0.5,0.3-0.9,0.3-1.4c0-0.5-0.1-1-0.3-1.4c-0.2-0.5-0.5-0.9-0.8-1.2c-0.3-0.3-0.8-0.6-1.2-0.8c-0.5-0.2-0.9-0.2-1.4-0.2
				h-42.1c-0.9,0-1.8,0.4-2.5,1.1c-0.6,0.7-1,1.6-1,2.5s0.4,1.8,1,2.5c0.7,0.7,1.5,1.1,2.5,1.1h5.2c-0.5,0-1,0.1-1.4,0.2
				c-0.5,0.2-0.9,0.4-1.2,0.8c-0.4,0.3-0.6,0.7-0.8,1.2c-0.2,0.5-0.3,0.9-0.3,1.4c0,0.5,0.1,1,0.3,1.4c0.2,0.5,0.5,0.9,0.8,1.2
				c0.3,0.3,0.8,0.6,1.2,0.8c0.5,0.2,1,0.2,1.4,0.2h-7.3c-0.5,0-1,0.1-1.4,0.2c-0.5,0.2-0.9,0.4-1.2,0.8c-0.3,0.3-0.6,0.7-0.8,1.2
				c-0.2,0.5-0.3,0.9-0.3,1.4c0,0.5,0.1,1,0.3,1.4c0.2,0.5,0.5,0.9,0.8,1.2c0.4,0.3,0.8,0.6,1.2,0.8c0.5,0.2,1,0.2,1.4,0.2h42
				c0.9,0,1.8-0.4,2.5-1.1c0.6-0.7,1-1.6,1-2.5c0-0.9-0.4-1.8-1-2.5c-0.7-0.7-1.5-1.1-2.5-1.1h7.3c0.5,0,1-0.1,1.4-0.2
				c0.5-0.2,0.9-0.4,1.2-0.8c0.4-0.3,0.6-0.7,0.8-1.2c0.2-0.5,0.3-0.9,0.3-1.4c0-0.5-0.1-1-0.3-1.4c-0.2-0.5-0.5-0.9-0.8-1.2
				c-0.3-0.3-0.8-0.6-1.2-0.8C1459.8,8.1,1459.3,8,1458.8,8.1z"/>
			
				<linearGradient id="SVGID_1_" gradientUnits="userSpaceOnUse" x1="1522.3313" y1="139.094" x2="1523.3914" y2="139.094" gradientTransform="matrix(1 0 0 -1 0 408)">
				<stop  offset="0" style="stop-color:#808080;stop-opacity:0.25"/>
				<stop  offset="0.54" style="stop-color:#808080;stop-opacity:0.12"/>
				<stop  offset="1" style="stop-color:#808080;stop-opacity:0.1"/>
			</linearGradient>
			<path class="st13" d="M1057.4,268.6c-0.6,0.4-0.9,0.7-0.9,0.7C1056.8,269.1,1057.1,268.8,1057.4,268.6z"/>
			
				<linearGradient id="SVGID_2_" gradientUnits="userSpaceOnUse" x1="1523.8313" y1="138.3855" x2="1524.9113" y2="138.3855" gradientTransform="matrix(1 0 0 -1 0 408)">
				<stop  offset="0" style="stop-color:#808080;stop-opacity:0.25"/>
				<stop  offset="0.54" style="stop-color:#808080;stop-opacity:0.12"/>
				<stop  offset="1" style="stop-color:#808080;stop-opacity:0.1"/>
			</linearGradient>
			<path class="st14" d="M1058.1,269.3c-0.6,0.4-0.9,0.7-0.9,0.7C1057.5,269.8,1057.8,269.5,1058.1,269.3z"/>
			<g class="st7">
				<path class="st8" d="M1073.1,256.1c0,0-22.7,32-31.7,64.3c0,0-7.9,13.8-6.9,27.9l-14.4,69.8l26.5,10c0,0-1.4-8.6,3.8-13.4
					c5.2-4.8,17.2-53.6,16.2-61.2c0,0,16.5-41.3,33-57.4c16.5-16.2,24.7-19.9,27.2-33.8C1126.8,262.1,1087.9,243.4,1073.1,256.1z"/>
			</g>
			<g class="st7">
				<path class="st8" d="M1007.3,231.5L1007.3,231.5c-2.9,1.4-4.1,4.9-2.7,7.8l7.3,15.2c1.4,2.9,4.9,4.1,7.8,2.7l0,0
					c2.9-1.4,4.1-4.9,2.7-7.8l-7.3-15.2C1013.7,231.4,1010.2,230.1,1007.3,231.5z"/>
			</g>
		</g>
	</g>
</g>
</svg>
