<svg width="168" height="119" viewBox="0 0 168 119" fill="none" xmlns="http://www.w3.org/2000/svg">
<path d="M23.0938 34.4062C23.0938 38.6771 22.0104 41.9479 19.8438 44.2188C17.6979 46.4896 14.5938 47.625 10.5312 47.625C6.55208 47.625 3.16667 46.8438 0.375 45.2812V36.875C3.79167 39.1042 6.92708 40.2188 9.78125 40.2188C11.4062 40.2188 12.625 39.7708 13.4375 38.875C14.2708 37.9792 14.6875 36.7604 14.6875 35.2188C14.6875 33.6979 14.1979 32.3125 13.2188 31.0625C12.2396 29.7917 10.625 28.3854 8.375 26.8438C6.41667 25.4896 4.92708 24.1979 3.90625 22.9688C2.90625 21.7188 2.125 20.3229 1.5625 18.7812C1.02083 17.2396 0.75 15.4479 0.75 13.4062C0.75 9.48958 1.83333 6.38542 4 4.09375C6.1875 1.80208 9.11458 0.65625 12.7812 0.65625C16.2812 0.65625 19.6458 1.63542 22.875 3.59375L20.0625 10.4062C19.0625 9.82292 18.0104 9.30208 16.9062 8.84375C15.8229 8.38542 14.6562 8.15625 13.4062 8.15625C12.0312 8.15625 10.9688 8.61458 10.2188 9.53125C9.48958 10.4271 9.125 11.6562 9.125 13.2188C9.125 14.7604 9.5625 16.1042 10.4375 17.25C11.3333 18.3958 12.8854 19.6979 15.0938 21.1562C18.0729 23.1562 20.1458 25.1979 21.3125 27.2812C22.5 29.3646 23.0938 31.7396 23.0938 34.4062ZM45.0312 47L36.3438 8.09375H36C36.3958 11.0938 36.5938 13.8438 36.5938 16.3438V47H28.7188V1.3125H41.7812L49.5938 37.2188H49.8438L57.5938 1.3125H70.8438V47H62.7812V16.0312C62.7812 13.4688 62.9271 10.8438 63.2188 8.15625H62.9688L54.3125 47H45.0312ZM100.531 47L97.9062 35.4688H86L83.375 47H74.875L86.1875 1.125H97.7188L109.062 47H100.531ZM96.3125 27.9375L93.875 17.3125C93.7292 16.6667 93.3958 15.0521 92.875 12.4688C92.375 9.86458 92.0729 8.125 91.9688 7.25C91.6979 9.04167 91.3542 11.0208 90.9375 13.1875C90.5208 15.3333 89.4375 20.25 87.6875 27.9375H96.3125ZM121.594 29.2188V47H113.094V1.3125H124.219C128.927 1.3125 132.396 2.42708 134.625 4.65625C136.875 6.88542 138 10.2917 138 14.875C138 20.6458 136.052 24.6771 132.156 26.9688L140.938 47H131.844L124.625 29.2188H121.594ZM121.594 21.9062H123.781C125.781 21.9062 127.219 21.3438 128.094 20.2188C128.969 19.0729 129.406 17.375 129.406 15.125C129.406 12.7917 128.938 11.1354 128 10.1562C127.083 9.15625 125.656 8.65625 123.719 8.65625H121.594V21.9062ZM159.125 47H150.656V8.78125H141.906V1.3125H167.875V8.78125H159.125V47Z" fill="#E16162"/>
<path d="M33.3911 76.998C33.3911 83.445 31.7586 88.3978 28.4937 91.8564C25.2563 95.2874 20.5664 97.0029 14.4238 97.0029H11.6016V119H0.3125V58.3213H15.7104C27.4976 58.3213 33.3911 64.5469 33.3911 76.998ZM11.6016 87.208H13.7598C16.5267 87.208 18.5881 86.4471 19.9438 84.9253C21.2996 83.4035 21.9775 80.9132 21.9775 77.4546C21.9775 74.2726 21.355 71.9207 20.1099 70.3989C18.8647 68.8494 16.9417 68.0747 14.3408 68.0747H11.6016V87.208ZM68.0469 119L64.5605 103.685H48.7476L45.2612 119H33.9722L48.9966 58.0723H64.3115L79.3774 119H68.0469ZM62.4438 93.6826L59.2065 79.5713C59.0129 78.7135 58.5701 76.5692 57.8784 73.1382C57.2144 69.6795 56.8132 67.3691 56.6748 66.207C56.3151 68.5866 55.8586 71.2152 55.3052 74.0928C54.7518 76.9427 53.313 83.4727 50.9888 93.6826H62.4438ZM96.0205 95.3843V119H84.7314V58.3213H99.5068C105.76 58.3213 110.367 59.8016 113.328 62.7622C116.316 65.7228 117.81 70.2467 117.81 76.334C117.81 83.9984 115.223 89.3524 110.049 92.396L121.711 119H109.634L100.046 95.3843H96.0205ZM96.0205 85.6724H98.9258C101.582 85.6724 103.491 84.9253 104.653 83.4312C105.815 81.9093 106.396 79.6543 106.396 76.666C106.396 73.5671 105.774 71.3674 104.529 70.0669C103.311 68.7388 101.416 68.0747 98.8428 68.0747H96.0205V85.6724ZM165.042 119H153.005L143.044 93.0601L138.521 97.584V119H127.231V58.3213H138.521V88.4116L142.463 79.3223L152.798 58.3213H164.875L150.847 84.5933L165.042 119Z" fill="#E16162"/>
</svg>
