<?xml version="1.0" encoding="utf-8"?>
<!-- Generator: Adobe Illustrator 25.1.0, SVG Export Plug-In . SVG Version: 6.00 Build 0)  -->
<svg version="1.1" id="Layer_1" xmlns="http://www.w3.org/2000/svg" xmlns:xlink="http://www.w3.org/1999/xlink" x="0px" y="0px"
	 viewBox="0 0 560 288" style="enable-background:new 0 0 560 288;" xml:space="preserve">
<style type="text/css">
	.st0{fill:#E16162;}
</style>
<path class="st0" d="M0,245.3V43h37.6v169.4h52.2v32.9H0z M246.2,143.9c0,32.6-6.1,57.6-18.3,75.1c-12.2,17.5-29.7,26.2-52.4,26.2
	c-22.8,0-40.3-8.7-52.5-26.2c-12.2-17.5-18.3-42.6-18.3-75.5c0-32.6,6.1-57.5,18.3-74.9c12.2-17.4,29.8-26,52.8-26
	c22.7,0,40.1,8.7,52.2,26.2C240.2,86.3,246.2,111.4,246.2,143.9z M142.2,143.9c0,22.4,2.8,39.5,8.5,51.3c5.7,11.8,14,17.6,24.9,17.6
	c22.1,0,33.1-23,33.1-68.9c0-45.9-11-68.9-32.8-68.9c-11.1,0-19.5,5.9-25.2,17.6C145,104.3,142.2,121.4,142.2,143.9z M334.4,133.4
	h60.2v101c-17.1,7.3-35.2,10.9-54.4,10.9c-22.9,0-40.5-8.7-52.8-26.1c-12.3-17.4-18.5-42.5-18.5-75.2c0-31.6,7.1-56.3,21.2-74.2
	C304.2,51.9,323.9,43,349.3,43c15.7,0,30.7,4,45,12.1L382.7,85c-11.1-6.5-21.5-9.7-31.2-9.7c-13.9,0-24.9,6.2-33,18.6
	c-8.1,12.4-12.2,29.4-12.2,50.8c0,22.1,2.9,39,8.8,50.8c5.9,11.8,14.4,17.6,25.6,17.6c5.9,0,11.9-0.8,18-2.3v-45.1h-24.4V133.4z
	 M560,143.9c0,32.6-6.1,57.6-18.3,75.1c-12.2,17.5-29.7,26.2-52.4,26.2c-22.8,0-40.3-8.7-52.5-26.2c-12.2-17.5-18.3-42.6-18.3-75.5
	c0-32.6,6.1-57.5,18.3-74.9c12.2-17.4,29.8-26,52.8-26c22.7,0,40.1,8.7,52.2,26.2C553.9,86.3,560,111.4,560,143.9z M455.9,143.9
	c0,22.4,2.8,39.5,8.5,51.3c5.7,11.8,14,17.6,24.9,17.6c22.1,0,33.1-23,33.1-68.9c0-45.9-10.9-68.9-32.8-68.9
	c-11.1,0-19.5,5.9-25.2,17.6C458.8,104.3,455.9,121.4,455.9,143.9z"/>
</svg>
